<svg xmlns="http://www.w3.org/2000/svg" width="81" height="17" fill="none">
    <path fill="#000"
        d="M75.048 16.92q-1.165 0-2.097-.443a3.8 3.8 0 0 1-1.444-1.257 3.1 3.1 0 0 1-.536-1.77q0-1.26.63-1.98.65-.723 2.119-1.025 1.491-.303 4.053-.303h1.048v1.234h-1.025q-1.421 0-2.376.094-.954.092-1.514.326-.56.233-.792.605-.233.374-.233.932 0 .955.653 1.56.675.606 1.816.606.932 0 1.63-.442a3 3 0 0 0 1.119-1.212q.42-.768.42-1.77V9.42q0-1.444-.583-2.073-.583-.652-1.91-.652-1.025 0-1.98.302-.955.28-1.957.932l-.652-1.374q.606-.42 1.374-.722a8 8 0 0 1 1.608-.49 8.4 8.4 0 0 1 1.607-.162q1.467 0 2.422.489.955.465 1.421 1.444.466.956.466 2.469v7.127h-1.77v-2.632h.21a3.36 3.36 0 0 1-.723 1.514q-.512.63-1.28.979a4.1 4.1 0 0 1-1.725.349M65.825 16.92q-1.7 0-2.935-.745a5.03 5.03 0 0 1-1.91-2.073q-.652-1.351-.652-3.122 0-1.793.652-3.097a4.76 4.76 0 0 1 1.91-2.004q1.234-.698 2.935-.698 1.048 0 2.072.372 1.026.373 1.7 1.048l-.651 1.375a4.3 4.3 0 0 0-1.491-.955 4.2 4.2 0 0 0-1.514-.303q-1.77 0-2.725 1.118-.955 1.095-.955 3.168 0 2.025.955 3.214.954 1.165 2.725 1.165.722 0 1.514-.303a4.1 4.1 0 0 0 1.49-.978l.653 1.374q-.675.675-1.724 1.071a6 6 0 0 1-2.05.373M55.612 2.572V.452h2.33v2.12zm.233 14.139V5.39h1.887v11.32zM42.84 16.71V.29h1.887v7.616h-.303q.489-1.35 1.584-2.026 1.117-.7 2.562-.7 1.35 0 2.236.49.908.49 1.35 1.49.444.98.443 2.493v7.058h-1.886V9.769q0-1.048-.28-1.723-.256-.675-.838-1.002-.56-.326-1.468-.326-1.024 0-1.793.443a3.03 3.03 0 0 0-1.188 1.234q-.42.793-.42 1.864v6.452zM39.471 16.92q-2.003 0-3.005-1.071-1-1.072-1.001-3.052v-5.94h-2.213V5.39h2.213V1.92h1.886v3.47h3.587v1.468h-3.587v5.753q0 1.327.56 2.026.559.675 1.816.676.373 0 .746-.093.372-.093.675-.187l.326 1.445q-.303.163-.885.302-.581.14-1.118.14M27.04 16.92q-1.654 0-2.866-.722a4.96 4.96 0 0 1-1.886-2.027q-.653-1.328-.653-3.12 0-1.794.653-3.099.675-1.327 1.886-2.05 1.212-.72 2.865-.721 1.654 0 2.865.722 1.212.721 1.864 2.05.675 1.304.675 3.097 0 1.794-.675 3.121a4.8 4.8 0 0 1-1.864 2.027q-1.21.722-2.865.722m0-1.514q1.606 0 2.538-1.118.955-1.142.955-3.261 0-2.097-.955-3.214-.931-1.118-2.539-1.118-1.584 0-2.539 1.118-.954 1.117-.955 3.214 0 2.12.955 3.26.955 1.119 2.54 1.119M19.259 16.92q-1.724 0-2.61-1.025-.86-1.024-.86-2.934V.29h1.886v12.53q0 .816.21 1.375.233.56.675.838.443.28 1.095.28.279 0 .535-.023.28-.047.513-.117l-.047 1.584q-.372.07-.722.117a5 5 0 0 1-.675.046M7.71 16.84q-2.423 0-4.146-1.025Q1.84 14.791.908 12.904 0 11.018 0 8.408 0 5.8.908 3.936q.933-1.886 2.656-2.911T7.71 0q1.7 0 3.144.536t2.423 1.56l-.746 1.56q-1.072-1-2.236-1.443-1.14-.465-2.539-.466-2.771 0-4.239 1.747T2.05 8.408t1.467 4.938q1.467 1.747 4.24 1.747 1.396 0 2.538-.442 1.165-.466 2.236-1.468l.746 1.561q-.979 1.002-2.423 1.56-1.444.537-3.144.536" />
</svg>